<?xml version="1.0" standalone="no"?><!DOCTYPE svg PUBLIC "-//W3C//DTD SVG 1.1//EN" "http://www.w3.org/Graphics/SVG/1.1/DTD/svg11.dtd"><svg t="1627971991071" class="icon" viewBox="0 0 1024 1024" version="1.1" xmlns="http://www.w3.org/2000/svg" p-id="12880" xmlns:xlink="http://www.w3.org/1999/xlink" width="128" height="128"><defs><style type="text/css"></style></defs><path d="M0 0m102.4 0l819.2 0q102.4 0 102.4 102.4l0 819.2q0 102.4-102.4 102.4l-819.2 0q-102.4 0-102.4-102.4l0-819.2q0-102.4 102.4-102.4Z" fill="#ffffff" p-id="12881" data-spm-anchor-id="a313x.7781069.0.i12" class="selected"></path><path d="M516.864 477.2352V560.64h137.9328c-5.5808 35.7632-41.6768 104.8576-137.9328 104.8576-82.9952 0-150.784-68.6848-150.784-153.4976 0-84.8128 67.8144-153.4976 150.784-153.4976 47.232 0 78.848 20.0448 96.9728 37.4784l65.9456-63.616C637.44 292.864 582.5024 268.8 516.864 268.8a242.9952 242.9952 0 0 0-243.2 243.2c0 134.4768 108.7232 243.2 243.2 243.2 140.3648 0 233.472-98.688 233.472-237.6448 0-15.9744-1.7152-28.16-3.84-40.32h-229.632z" fill="#2c2c2c" p-id="12882" data-spm-anchor-id="a313x.7781069.0.i11" class=""></path></svg>