<?xml version="1.0" standalone="no"?><!DOCTYPE svg PUBLIC "-//W3C//DTD SVG 1.1//EN" "http://www.w3.org/Graphics/SVG/1.1/DTD/svg11.dtd"><svg t="1624852663092" class="icon" viewBox="0 0 1024 1024" version="1.1" xmlns="http://www.w3.org/2000/svg" p-id="23530" id="mx_n_1624852663093" xmlns:xlink="http://www.w3.org/1999/xlink" width="128" height="128"><defs><style type="text/css"></style></defs><path d="M944 512m-32 0a32 32 0 1 0 64 0 32 32 0 1 0-64 0Z" fill="#FDA22E" p-id="23531"></path><path d="M944 656m-32 0a32 32 0 1 0 64 0 32 32 0 1 0-64 0Z" fill="#FDA22E" p-id="23532"></path><path d="M944 800m-32 0a32 32 0 1 0 64 0 32 32 0 1 0-64 0Z" fill="#FDA22E" p-id="23533"></path><path d="M944 944m-32 0a32 32 0 1 0 64 0 32 32 0 1 0-64 0Z" fill="#FDA22E" p-id="23534"></path><path d="M944 368m-32 0a32 32 0 1 0 64 0 32 32 0 1 0-64 0Z" fill="#FDA22E" p-id="23535"></path><path d="M944 224m-32 0a32 32 0 1 0 64 0 32 32 0 1 0-64 0Z" fill="#FDA22E" p-id="23536"></path><path d="M944 80m-32 0a32 32 0 1 0 64 0 32 32 0 1 0-64 0Z" fill="#FDA22E" p-id="23537"></path><path d="M112 96m-64 0a64 64 0 1 0 128 0 64 64 0 1 0-128 0Z" fill="#4BBEE5" p-id="23538"></path><path d="M112 304m-64 0a64 64 0 1 0 128 0 64 64 0 1 0-128 0Z" fill="#4BBEE5" p-id="23539"></path><path d="M112 512m-64 0a64 64 0 1 0 128 0 64 64 0 1 0-128 0Z" fill="#4BBEE5" p-id="23540"></path><path d="M112 720m-64 0a64 64 0 1 0 128 0 64 64 0 1 0-128 0Z" fill="#4BBEE5" p-id="23541"></path><path d="M384 304m-64 0a64 64 0 1 0 128 0 64 64 0 1 0-128 0Z" fill="#FDA22E" p-id="23542"></path><path d="M384 512m-64 0a64 64 0 1 0 128 0 64 64 0 1 0-128 0Z" fill="#FDA22E" p-id="23543"></path><path d="M384 720m-64 0a64 64 0 1 0 128 0 64 64 0 1 0-128 0Z" fill="#FDA22E" p-id="23544"></path><path d="M112 928m-64 0a64 64 0 1 0 128 0 64 64 0 1 0-128 0Z" fill="#4BBEE5" p-id="23545"></path><path d="M592 800a32 32 0 0 1-32-32V240a32 32 0 1 1 64 0v528a32 32 0 0 1-32 32z" fill="#F82F45" p-id="23546"></path><path d="M672 288c4.24 0 8.32-1.68 11.312-4.688L870.624 96h28.32A47.936 47.936 0 0 0 944 128c26.464 0 48-21.536 48-48s-21.536-48-48-48a47.936 47.936 0 0 0-45.056 32H864a15.952 15.952 0 0 0-11.312 4.688L665.376 256H640v-16c0-26.464-21.536-48-48-48s-48 21.536-48 48v48h-81.616A80.144 80.144 0 0 0 384 224c-20.032 0-38.144 7.664-52.192 19.872l-148.096-113.088A79.056 79.056 0 0 0 192 96c0-44.112-35.888-80-80-80S32 51.888 32 96s35.888 80 80 80c20.032 0 38.144-7.664 52.192-19.872l148.096 113.088a78.88 78.88 0 0 0-6.672 18.768h-115.232A80.16 80.16 0 0 0 112 224c-44.112 0-80 35.888-80 80s35.888 80 80 80c20.032 0 38.144-7.664 52.192-19.872l57.44 43.872-57.44 43.872C150.144 439.664 132.032 432 112 432c-44.112 0-80 35.888-80 80s35.888 80 80 80c20.032 0 38.144-7.664 52.192-19.872l57.44 43.872-57.44 43.872C150.144 647.664 132.032 640 112 640c-44.112 0-80 35.888-80 80s35.888 80 80 80a80.16 80.16 0 0 0 78.384-64h115.232c1.36 6.64 3.776 12.832 6.672 18.768l-148.096 113.088C150.144 855.664 132.032 848 112 848c-44.112 0-80 35.888-80 80s35.888 80 80 80 80-35.888 80-80c0-12.512-3.136-24.208-8.288-34.768l148.096-113.088C345.856 792.336 363.968 800 384 800a80.16 80.16 0 0 0 78.384-64H544v32c0 26.464 21.536 48 48 48s48-21.536 48-48h25.376l187.312 187.312A15.952 15.952 0 0 0 864 960h34.944A47.936 47.936 0 0 0 944 992c26.464 0 48-21.536 48-48s-21.536-48-48-48a47.936 47.936 0 0 0-45.056 32h-28.32L683.312 740.688A15.952 15.952 0 0 0 672 736h-32v-48h73.376l123.312 123.312A15.952 15.952 0 0 0 848 816h50.944A47.936 47.936 0 0 0 944 848c26.464 0 48-21.536 48-48s-21.536-48-48-48a47.936 47.936 0 0 0-45.056 32h-44.32l-123.312-123.312A15.952 15.952 0 0 0 720 656h-80v-48h137.376l59.312 59.312A15.952 15.952 0 0 0 848 672h50.944A47.936 47.936 0 0 0 944 704c26.464 0 48-21.536 48-48s-21.536-48-48-48a47.936 47.936 0 0 0-45.056 32h-44.32l-59.312-59.312A15.952 15.952 0 0 0 784 576h-144v-48h258.944A47.936 47.936 0 0 0 944 560c26.464 0 48-21.536 48-48s-21.536-48-48-48a47.936 47.936 0 0 0-45.056 32H640v-48h144c4.24 0 8.32-1.68 11.312-4.688L854.624 384h44.32A47.936 47.936 0 0 0 944 416c26.464 0 48-21.536 48-48s-21.536-48-48-48a47.936 47.936 0 0 0-45.056 32H848a15.952 15.952 0 0 0-11.312 4.688L777.376 416H640v-48h80c4.24 0 8.32-1.68 11.312-4.688L854.624 240h44.32A47.936 47.936 0 0 0 944 272c26.464 0 48-21.536 48-48s-21.536-48-48-48a47.936 47.936 0 0 0-45.056 32H848a15.952 15.952 0 0 0-11.312 4.688L713.376 336H640v-48zM944 64a16.016 16.016 0 1 1-16 16c0-8.832 7.184-16 16-16z m0 864a16.016 16.016 0 1 1-16 16c0-8.832 7.184-16 16-16z m0-144a16.016 16.016 0 1 1-16 16c0-8.832 7.184-16 16-16z m0-144a16.016 16.016 0 1 1-16 16c0-8.832 7.184-16 16-16z m0-144a16.016 16.016 0 1 1-16 16c0-8.832 7.184-16 16-16z m0-144a16.016 16.016 0 1 1-16 16c0-8.832 7.184-16 16-16z m0-144a16.016 16.016 0 1 1-16 16c0-8.832 7.184-16 16-16z m-481.616 112H544v176h-81.616A80.144 80.144 0 0 0 384 432c-20.032 0-38.144 7.664-52.192 19.872l-57.44-43.872 57.44-43.872C345.856 376.336 363.968 384 384 384a80.16 80.16 0 0 0 78.384-64zM336 512c0-26.464 21.536-48 48-48s48 21.536 48 48-21.536 48-48 48-48-21.536-48-48z m48-256c26.464 0 48 21.536 48 48s-21.536 48-48 48-48-21.536-48-48 21.536-48 48-48zM112 144C85.536 144 64 122.464 64 96s21.536-48 48-48 48 21.536 48 48-21.536 48-48 48z m0 208c-26.464 0-48-21.536-48-48s21.536-48 48-48 48 21.536 48 48-21.536 48-48 48z m71.712-13.232A78.88 78.88 0 0 0 190.384 320h115.232c1.36 6.64 3.776 12.832 6.672 18.768L248 387.872z m128.576 138.464A78.88 78.88 0 0 0 305.616 496h-115.232a78.88 78.88 0 0 0-6.672-18.768l64.288-49.088zM112 560c-26.464 0-48-21.536-48-48s21.536-48 48-48 48 21.536 48 48-21.536 48-48 48z m71.712-13.232A78.88 78.88 0 0 0 190.384 528h115.232c1.36 6.64 3.776 12.832 6.672 18.768L248 595.872zM305.616 704h-115.232a78.88 78.88 0 0 0-6.672-18.768l64.288-49.088 64.288 49.088A78.88 78.88 0 0 0 305.616 704zM112 768c-26.464 0-48-21.536-48-48s21.536-48 48-48 48 21.536 48 48-21.536 48-48 48z m0 208c-26.464 0-48-21.536-48-48s21.536-48 48-48 48 21.536 48 48-21.536 48-48 48z m272-208c-26.464 0-48-21.536-48-48s21.536-48 48-48 48 21.536 48 48-21.536 48-48 48z m78.384-64A80.144 80.144 0 0 0 384 640c-20.032 0-38.144 7.664-52.192 19.872l-57.44-43.872 57.44-43.872C345.856 584.336 363.968 592 384 592a80.16 80.16 0 0 0 78.384-64H544v176zM608 768a16.016 16.016 0 0 1-32 0V240a16.016 16.016 0 0 1 32 0z" fill="#171526" p-id="23547"></path><path d="M480 368h32v32h-32zM480 432h32v32h-32zM480 560h32v32h-32zM480 624h32v32h-32z" fill="#171526" p-id="23548"></path></svg>