<?xml version="1.0" standalone="no"?><!DOCTYPE svg PUBLIC "-//W3C//DTD SVG 1.1//EN" "http://www.w3.org/Graphics/SVG/1.1/DTD/svg11.dtd"><svg t="1627972071081" class="icon" viewBox="0 0 1024 1024" version="1.1" xmlns="http://www.w3.org/2000/svg" p-id="13790" xmlns:xlink="http://www.w3.org/1999/xlink" width="128" height="128"><defs><style type="text/css"></style></defs><path d="M85.333333 0h853.333334c46.933333 0 85.333333 38.4 85.333333 85.333333v853.333334c0 46.933333-38.4 85.333333-85.333333 85.333333H85.333333c-46.933333 0-85.333333-38.4-85.333333-85.333333V85.333333c0-46.933333 38.4-85.333333 85.333333-85.333333z" fill="#ffffff" p-id="13791" data-spm-anchor-id="a313x.7781069.0.i16" class="selected"></path><path d="M215.466667 614.4c2.133333-4.266667 34.133333-19.2 81.066666 36.266667 4.266667 2.133333 19.2 25.6 27.733334 34.133333 38.4 34.133333 93.866667 8.533333 100.266666 4.266667 2.133333-23.466667 12.8-42.666667 27.733334-57.6-14.933333 0-27.733333-2.133333-40.533334-6.4-12.8-2.133333-27.733333-6.4-38.4-10.666667-12.8-4.266667-25.6-10.666667-36.266666-19.2-10.666667-6.4-21.333333-14.933333-32-27.733333-10.666667-10.666667-19.2-23.466667-25.6-36.266667-6.4-12.8-12.8-29.866667-17.066667-49.066667-4.266667-19.2-6.4-40.533333-6.4-64 0-44.8 14.933333-83.2 44.8-117.333333-2.133333-4.266667-21.333333-49.066667 4.266667-115.2 36.266667-2.133333 74.666667 14.933333 119.466666 42.666667 32-8.533333 68.266667-12.8 108.8-14.933334 36.266667 2.133333 72.533333 6.4 108.8 14.933334 14.933333-8.533333 68.266667-44.8 117.333334-42.666667 23.466667 57.6 6.4 108.8 4.266666 115.2 29.866667 29.866667 44.8 66.133333 44.8 113.066667v14.933333c0 17.066667-2.133333 36.266667-6.4 53.333333-4.266667 17.066667-8.533333 34.133333-17.066666 49.066667-6.4 12.8-14.933333 25.6-25.6 36.266667s-19.2 19.2-32 25.6c-12.8 6.4-23.466667 12.8-36.266667 17.066666-12.8 4.266667-25.6 8.533333-38.4 10.666667-12.8 2.133333-27.733333 4.266667-40.533333 6.4 19.2 17.066667 29.866667 42.666667 29.866666 78.933333v119.466667c-34.133333 8.533333-68.266667 12.8-102.4 12.8H533.333333c-34.133333 0-68.266667-4.266667-102.4-12.8v-74.666667c-12.8 2.133333-100.266667 19.2-138.666666-44.8-12.8-19.2-23.466667-66.133333-64-87.466666-6.4 12.8-21.333333 4.266667-12.8-4.266667z" fill="#2c2c2c" p-id="13792" data-spm-anchor-id="a313x.7781069.0.i15" class=""></path></svg>