<?xml version="1.0" standalone="no"?><!DOCTYPE svg PUBLIC "-//W3C//DTD SVG 1.1//EN" "http://www.w3.org/Graphics/SVG/1.1/DTD/svg11.dtd"><svg t="1624854054194" class="icon" viewBox="0 0 1024 1024" version="1.1" xmlns="http://www.w3.org/2000/svg" p-id="36011" xmlns:xlink="http://www.w3.org/1999/xlink" width="128" height="128"><defs><style type="text/css"></style></defs><path d="M933.156 768.724C629.436 796.87 316.506 861.742 1 882.21c47.94-49.088 146.296-42.766 235.074-56.738 155.918-24.552 351.916-41.154 526.858-64.858 56.446-7.634 130.07-38.156 170.224 8.11zM633.244 882.21c-101.684 11.542-187.716 17.306-275.584 24.318-59.626 4.75-124.498-7.418-162.124 32.42 124.398 33.86 275.802-21.408 405.29-16.218 17.782-14.704 215.502 17.368 299.912-56.738-69.198-43.88-168.546 4.982-267.494 16.218zM146.416 671.108c-79.112-98.074 40.396-261.286 105.376-340.43 28.876-35.182 57.844-72.308 89.158-105.376 68.59-72.458 78.704-97.01 170.216-137.796 137.98-61.496 193.436 102.266 105.368 186.418-33.792 8.632-35.746 2.112-72.94 0 33.316-32.902 25.832-97.376 40.52-129.678-0.898-15.32-26.79-5.624-24.31-24.32C428.046 173.512 343.046 271.03 268.01 387.418c-31.612 49.012-66.32 97.708-72.958 178.316 0.898 15.304 26.79 5.624 24.32 24.32 8.966 0.248 17.482 0.048 25.666-0.5v-0.174h2.954c131.342-10.19 164.078-119.008 238.856-185.76-51.034-22.938-103.822 48.322-153.998 8.11 42.342-80.25 161.982-53.404 267.476-81.048 8.382 26.448 20.542 17.174 0 40.52 110.108-79.728 172.262-318.526 405.288-275.594 69.422 182.41-84.15 356.584-194.536 453.91-79.586 70.178-119.424 123.026-235.064 97.276-37.15-36.462-32.708-99.456-32.418-105.376 1.82-37.466 26.306-84.3 24.31-121.578-17.882 63.242-122.02 83.22-121.58 137.796-82.22 55.57-150.328 125.248-299.91 113.472z m453.91-113.478c104.86 33.094 172.186-85.764 251.274-129.696 46.208-69.664 132.616-168.286 97.268-267.492-156.834 32.92-301.32 202.256-348.542 397.188z" p-id="36012" fill="#000000"></path></svg>