<?xml version="1.0" standalone="no"?><!DOCTYPE svg PUBLIC "-//W3C//DTD SVG 1.1//EN" "http://www.w3.org/Graphics/SVG/1.1/DTD/svg11.dtd"><svg t="1624854198769" class="icon" viewBox="0 0 1024 1024" version="1.1" xmlns="http://www.w3.org/2000/svg" p-id="37791" xmlns:xlink="http://www.w3.org/1999/xlink" width="128" height="128"><defs><style type="text/css"></style></defs><path d="M512 0c-19.2 0-32 6.4-51.2 12.8L108.8 217.6c-25.6 19.2-44.8 51.2-44.8 83.2v416c0 32 19.2 64 44.8 83.2l64 38.4s51.2 25.6 76.8 25.6c76.8 0 134.4-64 134.4-134.4V320c0-19.2-12.8-32-32-32-12.8 0-25.6 12.8-25.6 32V729.6c0 38.4-32 76.8-76.8 76.8-12.8 0-32-6.4-32-6.4l-76.8-44.8c-6.4-12.8-12.8-25.6-12.8-38.4V300.8c0-12.8 6.4-25.6 19.2-25.6l352-204.8c0-6.4 6.4-6.4 12.8-6.4s12.8 0 12.8 6.4l352 204.8c12.8 6.4 19.2 19.2 19.2 25.6v416c0 12.8-6.4 25.6-19.2 25.6l-352 204.8c0 12.8-6.4 12.8-12.8 12.8s-12.8 0-12.8-6.4l-70.4-44.8c-6.4 0-6.4-6.4-12.8-6.4-19.2 0-32 12.8-32 32 0 12.8 6.4 19.2 12.8 25.6l70.4 44.8c12.8 12.8 25.6 19.2 44.8 19.2s32-6.4 51.2-12.8l352-204.8c32-19.2 44.8-51.2 44.8-83.2V300.8c0-32-19.2-64-44.8-83.2L563.2 12.8C544 6.4 531.2 0 512 0z" p-id="37792" fill="#000000"></path><path d="M620.8 288c-70.4 0-121.6 44.8-121.6 108.8 0 51.2 32 96 115.2 121.6 64 19.2 96 44.8 96 76.8 0 57.6-38.4 83.2-96 83.2h-6.4c-19.2 0-38.4 0-64-19.2-12.8-6.4-19.2-12.8-25.6-12.8-19.2 0-25.6 12.8-25.6 32 6.4 32 51.2 51.2 121.6 51.2 96 0 147.2-51.2 147.2-134.4 0-57.6-38.4-96-121.6-128-64-12.8-96-32-96-57.6 0-38.4 25.6-64 70.4-70.4 25.6 0 44.8 6.4 64 19.2 12.8 6.4 19.2 12.8 25.6 12.8 19.2 0 25.6-12.8 25.6-25.6-12.8-32-44.8-57.6-108.8-57.6z" p-id="37793" fill="#000000"></path></svg>