<?xml version="1.0" standalone="no"?><!DOCTYPE svg PUBLIC "-//W3C//DTD SVG 1.1//EN" "http://www.w3.org/Graphics/SVG/1.1/DTD/svg11.dtd"><svg t="1624858213209" class="icon" viewBox="0 0 1024 1024" version="1.1" xmlns="http://www.w3.org/2000/svg" p-id="41967" xmlns:xlink="http://www.w3.org/1999/xlink" width="128" height="128"><defs><style type="text/css"></style></defs><path d="M425.831285 1010.733431a139.633132 139.633132 0 0 1-147.482163-18.911616 136.59021 136.59021 0 0 1-45.274124-140.372534c-60.858432 5.630827-125.07261-25.623106-158.658501-83.267985-35.775658-61.427203-29.661376-135.139846 10.977268-183.627522C42.906617 560.181962 14.325904 508.366979 14.325904 449.527682c0-55.056974 25.025897-103.971228 63.048199-129.992474 1.820065-95.695619 54.260696-176.432577 125.982642-191.93157v-2.673221c0-80.054433 62.479428-124.845102 151.179171-124.845101a151.20761 151.20761 0 0 1 142.619177 99.876081l8.559994 49.909602c-10.806638 250.969937-19.281316 420.54883-25.480914 508.765118-15.811817 225.261515-33.927154 342.627286-54.402888 352.097314z" fill="#C7D5FF" p-id="41968"></path><path d="M483.56148 639.866694m-99.534819 0a99.534819 99.534819 0 1 0 199.069638 0 99.534819 99.534819 0 1 0-199.069638 0Z" fill="#FFD84F" p-id="41969"></path><path d="M827.667569 642.710546m-113.754079 0a113.754079 113.754079 0 1 0 227.508158 0 113.754079 113.754079 0 1 0-227.508158 0Z" fill="#FFD84F" p-id="41970"></path><path d="M910.139277 270.165938m-71.0963 0a71.096299 71.096299 0 1 0 142.192599 0 71.096299 71.096299 0 1 0-142.192599 0Z" fill="#FFD84F" p-id="41971"></path><path d="M530.883177 534.757925a125.243241 125.243241 0 0 1 73.086996 89.496022h80.225064c13.110158-76.784003 83.410178-130.817191 161.7583-124.333208 78.319683 6.54086 138.552468 71.409123 138.552469 149.302228 0 77.921544-60.232785 142.789808-138.552469 149.302229-78.348122 6.54086-148.648143-47.520767-161.7583-124.333208h-80.196626a123.735999 123.735999 0 0 1-22.6655 49.93804h25.196529a25.310283 25.310283 0 0 1 17.774075 7.337139l143.842032 142.476984h39.956121a25.253406 25.253406 0 0 1 22.295799 12.342317 24.769951 24.769951 0 0 1 0 25.310283 25.253406 25.253406 0 0 1-22.295799 12.313879H757.708811a25.310283 25.310283 0 0 1-17.774075-7.3087l-143.870472-142.533861H505.743526v112.38903a137.272735 137.272735 0 0 1-79.883802 124.276332 139.633132 139.633132 0 0 1-147.482164-18.911616 136.59021 136.59021 0 0 1-45.274123-140.372534c-60.858432 5.630827-125.07261-25.623106-158.658502-83.267985-35.775658-61.427203-29.661376-135.139846 10.977269-183.627522C42.906617 560.181962 14.325904 508.366979 14.325904 449.527682c0-55.056974 25.025897-103.971228 63.048199-129.992474 1.820065-95.695619 54.260696-176.432577 125.982642-191.93157v-2.673221c0-80.054433 62.479428-124.845102 151.179171-124.845101a151.20761 151.20761 0 0 1 142.619177 99.876081h84.178018c6.683052 0 13.081719 2.644782 17.774075 7.3087l143.842033 142.476983h68.337763c12.68358-48.686746 59.9484-80.452572 110.284579-74.110782C971.907741 182.006526 1009.674096 224.436798 1009.674096 274.716101c0 50.307741-37.737916 92.738013-88.102535 99.079803-50.33618 6.34179-97.601-25.395598-110.284579-74.110783h-229.982309a25.082774 25.082774 0 0 1-25.196529-24.96902c0-13.792682 11.290092-24.96902 25.196529-24.969021h90.377615L570.867736 149.870999h-65.181087v339.214664l57.787072-57.275179a25.36716 25.36716 0 0 1 17.774075-7.3087h125.982642a25.253406 25.253406 0 0 1 22.2958 12.313879 24.769951 24.769951 0 0 1 0 25.310283 25.253406 25.253406 0 0 1-22.2958 12.313879h-115.46039l-60.915309 60.3181z m-75.561147-7.87747v-77.40965c0-41.378046-33.841839-74.907061-75.589585-74.907061a25.253406 25.253406 0 0 1-22.2958-12.313879 24.769951 24.769951 0 0 1 0-25.310283 25.253406 25.253406 0 0 1 22.2958-12.313879 126.267028 126.267028 0 0 1 75.589585 24.96902V149.842561c0-55.170728-45.131931-99.876081-100.814552-99.876082-63.702284 0-100.786114 26.561577-100.786114 74.907061 0 34.467486 28.211012 62.422551 62.991321 62.422551a25.253406 25.253406 0 0 1 22.324238 12.313879 24.769951 24.769951 0 0 1 0 25.310283 25.253406 25.253406 0 0 1-22.324238 12.313879 113.526571 113.526571 0 0 1-100.956745-61.171256C173.012845 184.452239 136.611539 234.248087 129.132209 299.656683h23.803041c60.801555 0 112.900923 42.999042 123.935069 102.264917 21.613275 4.436409 41.434923 15.072415 57.04767 30.54297a24.826828 24.826828 0 0 1-0.3697 34.950941 25.36716 25.36716 0 0 1-35.263765 0.3697 63.417899 63.417899 0 0 0-89.097882 0 25.36716 25.36716 0 0 1-42.600903-10.977268 24.826828 24.826828 0 0 1 6.967437-24.343373 113.327501 113.327501 0 0 1 51.843422-29.348553 75.50427 75.50427 0 0 0-72.461348-53.492855H140.308547c-40.382698 0-75.618024 43.624689-75.618024 99.876081s35.263764 99.876081 75.618024 99.876082h12.598264a113.469694 113.469694 0 0 1 102.037409 63.332583c22.011414-15.982448 48.373922-25.93593 74.366729-25.93593h42.032132a126.153274 126.153274 0 0 1 83.950511-59.891523z m-100.188905 109.886441h-25.793737c-23.859918 0-51.559036 16.579657-66.659891 38.847018-5.744581 8.531556-8.958134 26.533139-8.958133 48.516114a24.940582 24.940582 0 0 1-12.427634 22.09673 25.395598 25.395598 0 0 1-25.53779 0 24.940582 24.940582 0 0 1-12.427633-22.09673c0-26.646893 3.412622-49.596778 12.399194-67.569922a62.763813 62.763813 0 0 0-62.792251-57.218302h-9.640659c-43.42562 28.921975-55.597306 91.82798-25.253405 143.842033 31.253933 53.635048 99.989835 74.366729 148.278442 46.724488a25.082774 25.082774 0 0 1 4.152024-1.905381 138.836853 138.836853 0 0 1 96.662528-38.875457 25.253406 25.253406 0 0 1 22.2958 12.313879 24.769951 24.769951 0 0 1 0 25.310283 25.253406 25.253406 0 0 1-22.2958 12.313879c-48.715184 0-88.18785 39.131403-88.187849 87.391571s39.501104 87.391571 88.187849 87.391571c48.715184 0 88.18785-39.131403 88.18785-87.391571v-114.806304c-58.668666-11.887301-100.814553-63.01976-100.814552-122.370951 0-4.265778 0.227508-8.417802 0.625647-12.512948zM833.355273 749.07061a100.814553 100.814553 0 0 0 93.136152-61.626272 99.250434 99.250434 0 0 0-21.840783-108.862654 101.497077 101.497077 0 0 0-109.858002-21.670152 99.876081 99.876081 0 0 0-62.251919 92.282997c0 55.170728 45.131931 99.876081 100.814552 99.90452z m-352.836714-24.96902c41.747747 0 75.618024-33.529015 75.618024-74.907061 0-41.378046-33.841839-74.907061-75.618024-74.907061-41.747747 0-75.589586 33.557453-75.589586 74.907061 0 19.878525 7.962786 38.960772 22.153607 52.980962a75.930848 75.930848 0 0 0 53.464417 21.926099z m428.4263-399.504326c27.812872 0 50.393057-22.352677 50.393057-49.93804s-22.580185-49.938041-50.393057-49.938041c-27.841311 0-50.393057 22.352677-50.393057 49.938041s22.551746 49.938041 50.393057 49.93804z m0 549.346887h25.196528a25.253406 25.253406 0 0 1 22.2958 12.313879 24.769951 24.769951 0 0 1 0 25.310282 25.253406 25.253406 0 0 1-22.2958 12.313879h-25.196528a25.082774 25.082774 0 0 1-24.656197-24.96902c0-13.593612 10.94883-24.684635 24.656197-24.96902z m-125.982643-724.130029a75.618024 75.618024 0 0 1-69.873443-46.241033 74.423606 74.423606 0 0 1 16.380588-81.64699A76.101479 76.101479 0 0 1 811.855752 5.687704a74.907061 74.907061 0 0 1 46.639173 69.219357c0 41.349608-33.841839 74.878623-75.561147 74.907061z m0-49.938041c13.934875 0 25.196529-11.233215 25.196529-25.025897a25.082774 25.082774 0 0 0-25.224967-24.940582 25.082774 25.082774 0 0 0-25.196529 25.025898c0 6.597737 2.673221 12.967965 7.394015 17.631882a25.310283 25.310283 0 0 0 17.830952 7.308699zM606.52964 1023.786711a75.618024 75.618024 0 0 1-69.845005-46.241033 74.423606 74.423606 0 0 1 16.380588-81.618552 76.101479 76.101479 0 0 1 82.386391-16.266833 74.907061 74.907061 0 0 1 46.667611 69.219357c0 41.349608-33.841839 74.907061-75.589585 74.907061z m0-49.938041a25.196529 25.196529 0 0 0 23.291147-15.442116 24.798389 24.798389 0 0 0-5.460195-27.215663 25.36716 25.36716 0 0 0-27.471611-5.403319 24.855266 24.855266 0 0 0-8.161855 40.752399 25.310283 25.310283 0 0 0 17.802514 7.308699zM556.136583 49.966479a25.253406 25.253406 0 0 1-22.324238-12.342317 24.769951 24.769951 0 0 1 0-25.310283 25.253406 25.253406 0 0 1 22.324238-12.28544h75.589585a25.253406 25.253406 0 0 1 22.2958 12.313879 24.769951 24.769951 0 0 1 0 25.310282 25.253406 25.253406 0 0 1-22.2958 12.313879h-75.589585z" fill="#444952" p-id="41972"></path></svg>