<?xml version="1.0" standalone="no"?><!DOCTYPE svg PUBLIC "-//W3C//DTD SVG 1.1//EN" "http://www.w3.org/Graphics/SVG/1.1/DTD/svg11.dtd"><svg t="1624853527228" class="icon" viewBox="0 0 1024 1024" version="1.1" xmlns="http://www.w3.org/2000/svg" p-id="33550" xmlns:xlink="http://www.w3.org/1999/xlink" width="128" height="128"><defs><style type="text/css"></style></defs><path d="M417.243929 322.539023H492.250625v392.122314h-75.006696zM282.375137 429.062856h75.006696v179.074648h-75.006696zM687.902468 429.062856h75.006696v179.074648h-75.006696zM552.419706 385.573299h75.006696V651.524733h-75.006696z" fill="#000000" p-id="33551"></path><path d="M848.148696 706.065754L512 900.182672l-118.700909-68.457679-38.782453 67.229739 157.483362 90.969921 413.918257-238.936745V521.363046h-77.769561zM175.748976 317.831918l133.231538-76.848606-38.884781-67.22974-171.911662 99.360848v477.873488l187.158589 108.058759 38.884781-67.229739-148.478465-85.751174zM512 34.075347L328.422904 139.98521l38.884781 67.332068 144.692315-83.602278 336.148696 194.116918v129.650045h77.769561V273.012092z" fill="#000000" p-id="33552"></path></svg>