<?xml version="1.0" standalone="no"?><!DOCTYPE svg PUBLIC "-//W3C//DTD SVG 1.1//EN" "http://www.w3.org/Graphics/SVG/1.1/DTD/svg11.dtd"><svg t="1624858146105" class="icon" viewBox="0 0 1024 1024" version="1.1" xmlns="http://www.w3.org/2000/svg" p-id="40395" xmlns:xlink="http://www.w3.org/1999/xlink" width="128" height="128"><defs><style type="text/css"></style></defs><path d="M85.333333 213.333333v597.333334h512v-85.333334h-85.333333c-47.36 0-85.333333-37.973333-85.333333-85.333333V384c0-47.36 37.973333-85.333333 85.333333-85.333333h85.333333V213.333333m0 85.333334v85.333333h85.333334V298.666667m-85.333334 85.333333h-85.333333v256h85.333333m0 0v85.333333h85.333334v-85.333333M213.333333 298.666667h85.333334c47.36 0 85.333333 37.973333 85.333333 85.333333v256c0 47.36-37.973333 85.333333-85.333333 85.333333H213.333333c-47.36 0-85.333333-37.973333-85.333333-85.333333V384c0-47.36 37.973333-85.333333 85.333333-85.333333m512 0v426.666666h85.333334v-170.666666h42.666666v42.666666h42.666667v128h85.333333v-128h-42.666666v-85.333333h42.666666V341.333333h-42.666666V298.666667M213.333333 384v256h85.333334V384m512 0h85.333333v85.333333h-85.333333z" p-id="40396" fill="#000000"></path></svg>