<?xml version="1.0" standalone="no"?><!DOCTYPE svg PUBLIC "-//W3C//DTD SVG 1.1//EN" "http://www.w3.org/Graphics/SVG/1.1/DTD/svg11.dtd"><svg t="1624853966288" class="icon" viewBox="0 0 1024 1024" version="1.1" xmlns="http://www.w3.org/2000/svg" p-id="34414" xmlns:xlink="http://www.w3.org/1999/xlink" width="128" height="128"><defs><style type="text/css"></style></defs><path d="M512 66.964578c60.12861 0 118.443597 11.718801 173.270845 34.877384 53.013624 22.461035 100.586376 54.548229 141.46267 95.424523s72.963488 88.449046 95.424523 141.46267c23.158583 54.827248 34.877384 113.142234 34.877384 173.270845s-11.718801 118.443597-34.877384 173.270845c-22.461035 53.013624-54.548229 100.586376-95.424523 141.46267-40.876294 40.876294-88.449046 72.963488-141.46267 95.424523-54.827248 23.158583-113.142234 34.877384-173.270845 34.877384s-118.443597-11.718801-173.270845-34.877384c-53.013624-22.461035-100.586376-54.548229-141.46267-95.424523-40.876294-40.876294-72.963488-88.449046-95.424523-141.46267-23.158583-54.827248-34.877384-113.142234-34.877384-173.270845s11.718801-118.443597 34.877384-173.270845c22.461035-53.013624 54.548229-100.586376 95.424523-141.46267S285.855041 124.302997 338.729155 101.841962c54.827248-23.158583 113.142234-34.877384 173.270845-34.877384m0-66.964578C229.214169 0 0 229.214169 0 512s229.214169 512 512 512 512-229.214169 512-512S794.785831 0 512 0z" p-id="34415" fill="#000000"></path><path d="M598.495913 162.807629H427.178202c-48.549319 0-88.030518 39.341689-88.030518 88.030518v65.429973h168.946049v21.623978H238.282289c-40.736785 0-73.661035 34.319346-73.661036 76.730245v196.987466c0 42.410899 33.06376 76.730245 73.661036 76.730245h77.567302v-79.938964c0-61.523706 47.851771-108.259401 106.864305-108.259401h89.146594v-0.837057H598.495913c48.549319 0 88.030518-39.341689 88.030518-88.030518V250.698638c0-48.549319-39.341689-87.891008-88.030518-87.891009z m-185.547684 115.374387c-20.507902 0-37.109537-16.601635-37.109537-37.109536 0-20.507902 16.601635-37.109537 37.109537-37.109537 20.507902 0 37.109537 16.601635 37.109537 37.109537-0.13951 20.507902-16.741144 37.109537-37.109537 37.109536z" p-id="34416" fill="#000000"></path><path d="M425.504087 861.192371h171.317711c48.549319 0 88.030518-39.341689 88.030518-88.030518v-65.429973H515.766757v-21.623978h269.950954c40.736785 0 73.661035-34.319346 73.661036-76.730245V412.390191c0-42.410899-33.06376-76.730245-73.661036-76.730245h-77.567302v79.938964c0 61.523706-47.851771 108.259401-106.864305 108.259401h-89.146594v0.837057H425.504087c-48.549319 0-88.030518 39.341689-88.030518 88.030518v160.575476c0 48.549319 39.341689 87.891008 88.030518 87.891009z m185.547684-115.374387c20.507902 0 37.109537 16.601635 37.109537 37.109536 0 20.507902-16.601635 37.109537-37.109537 37.109537-20.507902 0-37.109537-16.601635-37.109537-37.109537 0.13951-20.507902 16.741144-37.109537 37.109537-37.109536z" p-id="34417" fill="#000000"></path></svg>