<?xml version="1.0" standalone="no"?><!DOCTYPE svg PUBLIC "-//W3C//DTD SVG 1.1//EN" "http://www.w3.org/Graphics/SVG/1.1/DTD/svg11.dtd"><svg t="1627973392913" class="icon" viewBox="0 0 1024 1024" version="1.1" xmlns="http://www.w3.org/2000/svg" p-id="29546" xmlns:xlink="http://www.w3.org/1999/xlink" width="128" height="128"><defs><style type="text/css"></style></defs><path d="M982.204082 1024H41.795918c-22.987755 0-41.795918-18.808163-41.795918-41.795918V41.795918c0-22.987755 18.808163-41.795918 41.795918-41.795918h940.408164c22.987755 0 41.795918 18.808163 41.795918 41.795918v940.408164c0 22.987755-18.808163 41.795918-41.795918 41.795918z" fill="#ffffff" p-id="29547" data-spm-anchor-id="a313x.7781069.0.i56" class="selected"></path><path d="M258.089796 546.481633c-21.942857 52.244898-26.122449 103.444898-8.359184 111.804081 12.538776 6.269388 31.346939-8.359184 50.155102-35.52653 7.314286 29.257143 25.077551 56.42449 50.155102 77.322449-27.167347 10.44898-43.885714 26.122449-43.885714 43.885714 0 30.302041 47.020408 54.334694 105.534694 54.334694 52.244898 0 96.130612-19.853061 104.489796-45.97551h12.538775c8.359184 26.122449 51.2 45.97551 104.489796 45.97551 58.514286 0 105.534694-24.032653 105.534694-54.334694 0-18.808163-17.763265-34.481633-43.885714-43.885714 25.077551-20.897959 42.840816-48.065306 50.155102-77.322449 17.763265 27.167347 37.616327 41.795918 50.155102 35.52653 17.763265-9.404082 14.628571-59.559184-8.359184-111.804081-17.763265-41.795918-41.795918-72.097959-59.559183-78.367347V459.755102c0-15.673469-4.179592-31.346939-12.538776-42.840816v-3.134694c0-7.314286-2.089796-14.628571-4.179592-19.853061-4.179592-107.62449-74.187755-193.306122-188.081632-193.306123s-183.902041 85.681633-188.081633 193.306123c-3.134694 6.269388-4.179592 12.538776-4.179592 19.853061v4.179592c-7.314286 12.538776-12.538776 27.167347-12.538775 42.840816v8.359184c-18.808163 6.269388-42.840816 36.571429-59.559184 77.322449z" fill="#2c2c2c" p-id="29548" data-spm-anchor-id="a313x.7781069.0.i55" class=""></path></svg>